<svg width="97" height="97" viewBox="0 0 97 97" fill="none" xmlns="http://www.w3.org/2000/svg">
<path d="M49.6834 14.0328C49.3207 14.0322 48.9625 14.1129 48.6351 14.269C48.3078 14.4251 48.0196 14.6527 47.7919 14.9349L47.3602 15.255C38.994 12.6651 29.4492 14.5663 22.8047 20.9683C20.0214 23.6081 17.951 26.9088 16.7859 30.5635C15.6208 34.2183 15.3988 38.1083 16.1408 41.8718L15.8983 42.0949L12.1201 45.7324C11.3893 46.4258 10.8072 47.2606 10.4095 48.1862C10.0118 49.1117 9.80664 50.1086 9.80664 51.1159C9.80664 52.1233 10.0118 53.1202 10.4095 54.0457C10.8072 54.9713 11.3893 55.8061 12.1201 56.4994C14.0504 58.3618 16.7276 59.0602 19.2157 58.5946C19.5212 59.9963 20.2342 61.33 21.3642 62.4164C22.8532 63.852 24.7883 64.5941 26.738 64.6474C26.7914 66.5244 27.5625 68.3868 29.0515 69.8224C30.5404 71.258 32.4804 72.0049 34.4301 72.0534C34.4786 73.9303 35.2546 75.7976 36.7436 77.2332C38.169 78.586 40.0363 79.3765 41.9998 79.4586C43.9632 79.5406 45.8899 78.9086 47.4233 77.6794L49.5427 79.7164C52.6467 82.7088 57.681 82.7088 60.785 79.7164C62.2691 78.2905 63.0403 76.4378 63.1082 74.5657C65.0482 74.5075 66.9639 73.7654 68.4432 72.3395C69.9224 70.9136 70.6984 69.0561 70.7566 67.184C72.7273 67.1126 74.6032 66.3205 76.0286 64.9578C77.2071 63.8278 77.9346 62.4261 78.2159 60.9614C79.4643 61.18 80.7466 61.1025 81.9595 60.7352C83.1725 60.3679 84.2824 59.7211 85.1999 58.8468C85.9315 58.1535 86.5142 57.3183 86.9124 56.3923C87.3106 55.4663 87.5159 54.4689 87.5159 53.4609C87.5159 52.4529 87.3106 51.4555 86.9124 50.5295C86.5142 49.6035 85.9315 48.7684 85.1999 48.075L81.7079 44.7139L82.4209 42.0464C83.8579 36.5926 83.1279 30.7943 80.3839 25.8668C76.3293 18.5627 68.4626 14.0522 59.9557 14.0522H53.9902L53.219 14.0328H49.6834ZM61.5804 32.0554L73.2447 43.2929L73.2592 43.3026L81.7031 51.4409C81.9774 51.701 82.1958 52.0143 82.3451 52.3616C82.4944 52.7088 82.5713 53.0829 82.5713 53.4609C82.5713 53.8389 82.4944 54.213 82.3451 54.5603C82.1958 54.9076 81.9774 55.2208 81.7031 55.4809C81.1359 56.0164 80.3854 56.3147 79.6054 56.3147C78.8254 56.3147 78.075 56.0164 77.5078 55.4809L71.101 49.3117C70.6313 48.8612 70.0058 48.6096 69.355 48.6096C68.7042 48.6096 68.0786 48.8612 67.609 49.3117L67.5411 49.3699C67.3136 49.5873 67.1326 49.8485 67.009 50.1377C66.8853 50.427 66.8216 50.7383 66.8216 51.0529C66.8216 51.3675 66.8853 51.6788 67.009 51.968C67.1326 52.2573 67.3136 52.5185 67.5411 52.7358L72.5366 57.547C73.7006 58.6625 73.7006 60.4764 72.5366 61.5968C72.0214 62.0849 71.3525 62.3785 70.6445 62.4272C69.9365 62.4759 69.2336 62.2766 68.6566 61.8635C68.1749 61.5156 67.5866 61.3474 66.9939 61.3881C66.4011 61.4289 65.8414 61.676 65.4119 62.0866C64.9922 62.488 64.7388 63.0324 64.7019 63.612C64.6651 64.1915 64.8475 64.7637 65.2131 65.2149C65.6484 65.7602 65.8631 66.4492 65.8146 67.1453C65.7661 67.8414 65.458 68.494 64.9512 68.9736C64.4287 69.4691 63.7481 69.7641 63.0294 69.8067C62.3106 69.8493 61.5999 69.6367 61.0227 69.2064C60.5435 68.847 59.9527 68.6683 59.3546 68.7021C58.7565 68.7358 58.1895 68.9797 57.7538 69.3907C57.3286 69.7915 57.0707 70.3382 57.0321 70.9212C56.9934 71.5041 57.1767 72.0802 57.5452 72.5335C57.993 73.0853 58.2154 73.786 58.1677 74.495C58.12 75.2039 57.8058 75.8686 57.2882 76.3553C56.7141 76.9002 55.9529 77.2039 55.1614 77.2039C54.37 77.2039 53.6088 76.9002 53.0347 76.3553L50.9347 74.3329L51.701 73.5957C52.4326 72.9023 53.0152 72.0672 53.4134 71.1412C53.8116 70.2152 54.017 69.2178 54.017 68.2098C54.017 67.2018 53.8116 66.2044 53.4134 65.2784C53.0152 64.3524 52.4326 63.5172 51.701 62.8238C50.2505 61.4363 48.3339 60.6406 46.3272 60.5928C46.2672 58.6292 45.4361 56.7682 44.0137 55.413C42.5612 54.0261 40.6428 53.2321 38.6351 53.1869C38.5751 51.2232 37.744 49.3622 36.3216 48.0071C35.3899 47.1203 34.2603 46.4681 33.0264 46.1046C31.7925 45.7411 30.4898 45.6767 29.2261 45.9167C28.9055 44.4576 28.1575 43.1271 27.0775 42.0949C26.2498 41.3033 25.2626 40.6974 24.1821 40.3177C23.1015 39.938 21.9523 39.7932 20.8113 39.893C20.43 37.0511 20.7279 34.1592 21.6806 31.4546C22.6333 28.75 24.2135 26.3099 26.2918 24.3342C28.3923 22.327 30.911 20.8094 33.6673 19.8904C36.4235 18.9714 39.3489 18.6737 42.2338 19.0186L35.177 24.2081C34.2741 24.8642 33.5135 25.6964 32.9412 26.6546C32.3689 27.6128 31.9967 28.677 31.8472 29.783C31.6976 30.889 31.7737 32.0139 32.0709 33.0897C32.3682 34.1654 32.8803 35.1698 33.5765 36.0421C34.9852 37.8065 37.0195 38.9603 39.2567 39.2638C41.494 39.5673 43.7622 38.9971 45.59 37.6717L53.2336 32.0603L61.5804 32.0554ZM38.0482 28.1124L50.6194 18.8828H53.219C53.4568 18.8806 53.6946 18.887 53.932 18.9022H59.9557C66.7651 18.9022 72.9779 22.5155 76.145 28.2239C78.2887 32.0845 78.8513 36.5708 77.7309 40.8048L77.7164 40.8533L64.3304 27.9184C63.8767 27.4633 63.2609 27.2069 62.6183 27.2054H52.4333C51.9185 27.2064 51.4175 27.3712 51.0026 27.6759L42.7188 33.7578C41.9047 34.3393 40.8994 34.5883 39.908 34.454C38.9166 34.3197 38.0138 33.8123 37.3838 33.0351C37.0905 32.6739 36.8742 32.2564 36.7484 31.8083C36.6225 31.3603 36.5897 30.8913 36.652 30.4301C36.7142 29.969 36.8702 29.5254 37.1103 29.1268C37.3504 28.7282 37.6696 28.383 38.0482 28.1124ZM40.1919 69.8709L40.2404 69.8224L44.0137 66.1849L44.0574 66.1461C44.6276 65.6291 45.372 65.3464 46.1417 65.3545C46.9114 65.3626 47.6497 65.6609 48.209 66.1897C48.4833 66.4499 48.7017 66.7631 48.851 67.1104C49.0003 67.4577 49.0772 67.8318 49.0772 68.2098C49.0772 68.5878 49.0003 68.9618 48.851 69.3091C48.7017 69.6564 48.4833 69.9697 48.209 70.2298L44.4308 73.8673C43.8637 74.4028 43.1132 74.7011 42.3332 74.7011C41.5532 74.7011 40.8027 74.4028 40.2356 73.8673C39.9649 73.611 39.7484 73.3031 39.599 72.9616C39.4495 72.6201 39.3702 72.2521 39.3657 71.8794C39.3612 71.5066 39.4315 71.1368 39.5726 70.7918C39.7137 70.4468 39.9275 70.1336 40.1919 69.8709ZM40.5605 62.7802L40.512 62.8238L36.7387 66.4613L36.6902 66.505C36.1196 67.02 35.3759 67.3009 34.6073 67.292C33.8388 67.283 33.1019 66.9847 32.5435 66.4565C32.2722 66.1991 32.0556 65.8898 31.9066 65.5469C31.7575 65.204 31.6791 64.8345 31.6759 64.4607C31.6727 64.0868 31.7449 63.7161 31.8881 63.3707C32.0314 63.0253 32.2427 62.7123 32.5095 62.4504L32.5435 62.4164L36.3168 58.7789L36.3507 58.745C36.9203 58.2239 37.6661 57.9378 38.438 57.9441C39.21 57.9504 39.951 58.2486 40.512 58.7789C40.7834 59.0353 41.0006 59.3436 41.1504 59.6855C41.3003 60.0274 41.3799 60.396 41.3844 60.7693C41.3889 61.1426 41.3183 61.513 41.1768 61.8585C41.0352 62.2039 40.8257 62.5174 40.5605 62.7802ZM32.8248 55.413L29.0466 59.0505L29.0127 59.0845C28.4431 59.6056 27.6973 59.8917 26.9253 59.8854C26.1534 59.8791 25.4124 59.5808 24.8514 59.0505C24.5771 58.7904 24.3586 58.4772 24.2093 58.1299C24.0601 57.7826 23.9831 57.4085 23.9831 57.0305C23.9831 56.6525 24.0601 56.2784 24.2093 55.9312C24.3586 55.5839 24.5771 55.2706 24.8514 55.0105L28.6247 51.373C29.1921 50.8361 29.9436 50.5369 30.7247 50.5369C31.5059 50.5369 32.2574 50.8361 32.8248 51.373C33.0967 51.6304 33.314 51.9401 33.4635 52.2834C33.613 52.6268 33.6917 52.9968 33.6948 53.3713C33.698 53.7457 33.6256 54.117 33.4819 54.4628C33.3383 54.8087 33.1263 55.1219 32.8587 55.3839L32.8248 55.413ZM23.5807 49.5009L19.8074 53.1384C19.24 53.6753 18.4885 53.9745 17.7073 53.9745C16.9262 53.9745 16.1747 53.6753 15.6073 53.1384C15.3322 52.8782 15.1131 52.5647 14.9634 52.2169C14.8136 51.8692 14.7364 51.4946 14.7364 51.1159C14.7364 50.7373 14.8136 50.3627 14.9634 50.015C15.1131 49.6672 15.3322 49.3537 15.6073 49.0935L19.3854 45.456C19.9526 44.9205 20.703 44.6222 21.483 44.6222C22.263 44.6222 23.0135 44.9205 23.5807 45.456C23.8557 45.7162 24.0748 46.0297 24.2245 46.3775C24.3743 46.7252 24.4515 47.0998 24.4515 47.4784C24.4515 47.8571 24.3743 48.2317 24.2245 48.5794C24.0748 48.9272 23.8557 49.2407 23.5807 49.5009Z" fill="#49BC82"/>
</svg>
