<svg width="97" height="97" viewBox="0 0 97 97" fill="none" xmlns="http://www.w3.org/2000/svg">
<path d="M48.5 88.9166C44.391 88.9166 40.1809 88.1756 35.8698 86.6937C31.5587 85.2117 27.6517 83.1909 24.149 80.6312C20.6462 78.0714 17.7672 75.0739 15.5119 71.6385C13.2567 68.203 12.1277 64.5319 12.125 60.6249V48.4999L28.2917 60.6249L22.0271 66.8895C23.9806 70.3249 27.0792 73.2888 31.3229 75.7812C35.5667 78.2735 39.9451 79.8565 44.4583 80.5301V44.4583H32.3333V36.3749H44.4583V31.626C42.1007 30.7503 40.1647 29.2845 38.6505 27.2286C37.1362 25.1728 36.3777 22.8326 36.375 20.2083C36.375 16.8402 37.5538 13.9773 39.9115 11.6197C42.2691 9.26207 45.1319 8.08325 48.5 8.08325C51.8681 8.08325 54.7309 9.26207 57.0885 11.6197C59.4462 13.9773 60.625 16.8402 60.625 20.2083C60.625 22.8353 59.8679 25.1768 58.3536 27.2327C56.8393 29.2885 54.902 30.753 52.5417 31.626V36.3749H64.6667V44.4583H52.5417V80.5301C57.0549 79.8565 61.4333 78.2735 65.6771 75.7812C69.9208 73.2888 73.0194 70.3249 74.9729 66.8895L68.7083 60.6249L84.875 48.4999V60.6249C84.875 64.5319 83.7474 68.203 81.4921 71.6385C79.2369 75.0739 76.3565 78.0714 72.851 80.6312C69.3456 83.1909 65.4386 85.2117 61.1302 86.6937C56.8218 88.1756 52.6117 88.9166 48.5 88.9166ZM48.5 24.2499C49.6451 24.2499 50.6057 23.8633 51.3817 23.09C52.1577 22.3167 52.5444 21.3561 52.5417 20.2083C52.539 19.0604 52.151 18.1012 51.3777 17.3306C50.6044 16.56 49.6451 16.172 48.5 16.1666C47.3549 16.1612 46.3956 16.5492 45.6223 17.3306C44.849 18.112 44.461 19.0712 44.4583 20.2083C44.4556 21.3453 44.8436 22.3059 45.6223 23.09C46.401 23.874 47.3602 24.2607 48.5 24.2499Z" fill="#49BC82"/>
</svg>
